<?xml version="1.0" encoding="utf-8"?>
<!-- Generator: $$$/GeneralStr/196=Adobe Illustrator 27.6.0, SVG Export Plug-In . SVG Version: 6.00 Build 0)  -->
<svg version="1.1" id="Calque_1" xmlns="http://www.w3.org/2000/svg" xmlns:xlink="http://www.w3.org/1999/xlink" x="0px" y="0px"
	 viewBox="0 0 805.9 561.9" style="enable-background:new 0 0 805.9 561.9;" xml:space="preserve">
<style type="text/css">
	.st0{fill:#FFFFFF;}
</style>
<g>
	<polygon class="st0" points="143.7,318.7 131.9,318.7 131.9,380.9 166.1,380.9 166.1,370.6 143.7,370.6 	"/>
	<path class="st0" d="M205.1,339.6c0,2.3,0.1,3.1,0.2,3.8h-0.3c-2.2-4-7.3-6.8-13.9-6.8c-12.3,0-21.4,9.4-21.4,22.8
		c0,13.4,8.6,22.8,20.9,22.8c6.6,0,11.9-2.8,14.3-7.3h0.3c-0.1,0.9-0.2,2.1-0.2,4v2h10.6v-43h-10.6V339.6z M193,372
		c-6.7,0-11.6-5.2-11.6-12.7c0-7.4,4.9-12.5,11.6-12.5c6.8,0,11.7,5.1,11.7,12.5C204.7,366.7,199.8,372,193,372z"/>
	<path class="st0" d="M259.3,359h31.6v-40.3h-43.4v62.2h11.8V359z M259.3,329h19.8v19.9h-19.8V329z"/>
	<polygon class="st0" points="300.7,318.7 300.7,380.9 321.3,380.9 321.3,370.8 312.3,370.8 312.3,318.7 	"/>
	<path class="st0" d="M360.4,380.9H371v-43h-10.6v1.7c0,2.3,0.1,3.1,0.2,3.8h-0.3c-2.2-4-7.3-6.8-13.9-6.8
		c-12.3,0-21.4,9.4-21.4,22.8c0,13.4,8.6,22.8,20.9,22.8c6.6,0,11.9-2.8,14.3-7.3h0.3c-0.1,0.9-0.2,2.1-0.2,4V380.9z M348.3,372
		c-6.7,0-11.6-5.2-11.6-12.7c0-7.4,4.9-12.5,11.6-12.5c6.8,0,11.7,5.1,11.7,12.5C360,366.7,355.1,372,348.3,372z"/>
	<polygon class="st0" points="395.6,327 384,327 384,338 380,338 380,347.9 384,347.9 384,380.9 404.4,380.9 404.4,370.8 
		395.6,370.8 395.6,347.9 405.6,347.9 405.6,338 395.6,338 	"/>
	<path class="st0" d="M454,359.4c0-13.3-8.5-22.8-21.1-22.8c-13.4,0-22.9,9.5-22.9,22.8c0,13.2,9.5,22.8,23.1,22.8
		c7.3,0,13.2-2.6,17.6-8.3l-6.7-7.1c-2.8,3.6-6,5.1-10.8,5.1c-6,0-9.9-3.2-11.1-8.9h31.6C453.9,362,454,360.6,454,359.4z
		 M422.1,355.7c1.2-5.6,5-9,10.6-9c5.4,0,9.1,3.6,10,9H422.1z"/>
	<polygon class="st0" points="475.3,380.9 475.3,347.9 485,347.9 485,338 475.3,338 475.3,328.4 485.1,328.4 485.1,318.7 
		463.7,318.7 463.7,338 459.7,338 459.7,347.9 463.7,347.9 463.7,380.9 	"/>
	<path class="st0" d="M488.3,359.4c0,13.2,9.6,22.8,23,22.8s23.1-9.6,23.1-22.8c0-13.3-9.7-22.8-23.1-22.8S488.3,346.2,488.3,359.4z
		 M522.7,359.3c0,7.5-4.6,12.7-11.4,12.7c-6.7,0-11.4-5.2-11.4-12.7c0-7.4,4.6-12.5,11.4-12.5C518.1,346.7,522.7,351.9,522.7,359.3z
		"/>
	<polygon class="st0" points="563.6,338 542.8,338 542.8,380.9 554.4,380.9 554.4,348.2 563.6,348.2 	"/>
	<polygon class="st0" points="606.8,380.9 606.8,347.9 619.4,347.9 619.4,380.9 631,380.9 631,338 570.9,338 570.9,380.9 
		582.5,380.9 582.5,347.9 595.2,347.9 595.2,380.9 	"/>
	<path class="st0" d="M662.5,382.2c7.3,0,13.2-2.6,17.6-8.3l-6.7-7.1c-2.8,3.6-6,5.1-10.8,5.1c-6,0-9.9-3.2-11.1-8.9H683
		c0.3-1.1,0.3-2.5,0.3-3.6c0-13.3-8.5-22.8-21.1-22.8c-13.4,0-22.9,9.5-22.9,22.8C639.4,372.6,648.9,382.2,662.5,382.2z
		 M662.1,346.7c5.4,0,9.1,3.6,10,9h-20.6C652.6,350.2,656.4,346.7,662.1,346.7z"/>
	<path class="st0" d="M324.5,263c-3.6-0.8-6-2.7-9.3-5.5c-5.2-4.3-12.4-10.2-25.6-10.2v18.8c6.5,0,9.2,2.2,13.7,5.9
		c5.2,4.3,12.4,10.2,25.6,10.2s20.4-5.9,25.6-10.2c4.5-3.7,7.2-5.9,13.7-5.9c6.5,0,9.2,2.2,13.7,5.9c5.2,4.3,12.4,10.2,25.6,10.2
		c13.2,0,20.4-5.9,25.6-10.2c4.5-3.7,7.2-5.9,13.7-5.9c6.5,0,9.2,2.2,13.7,5.9c5.2,4.3,12.4,10.2,25.6,10.2
		c13.2,0,20.4-5.9,25.6-10.2c4.5-3.7,7.2-5.9,13.7-5.9v-18.8c-13.2,0-20.4,5.9-25.6,10.2c-3.3,2.7-5.6,4.6-9.1,5.4v-45.5h34.8V206
		v-8.7V147v-11.7v-8.5H289.6V147h0v50.2h0v20.2h34.9V263z M470.7,256c-5.1-4-12-8.6-23.7-8.6c-13.2,0-20.4,5.9-25.6,10.2
		c-4.5,3.7-7.2,5.9-13.7,5.9c-6.5,0-9.2-2.2-13.7-5.9c-5.2-4.3-12.4-10.2-25.6-10.2c-11.5,0-18.5,4.5-23.5,8.5v-38.4h125.9V256z
		 M309.8,197.3V147h195.6v50.2H309.8z"/>
	<polygon class="st0" points="135,407.1 131.9,407.1 131.9,428.5 143.5,428.5 143.5,425.7 135,425.7 	"/>
	<path class="st0" d="M157.6,414.6c0,0.8,0,1.1,0.1,1.5h-0.1c-0.7-1.5-2.6-2.7-5.2-2.7c-4.4,0-7.5,3.3-7.5,7.8c0,4.5,3,7.8,7.4,7.8
		c2.6,0,4.6-1.3,5.3-3h0.1c0,0.4-0.1,0.8-0.1,1.5v1.1h2.8v-14.7h-2.8V414.6z M152.7,426.2c-2.7,0-4.8-2.1-4.8-5.1c0-3,2-5.1,4.8-5.1
		c2.8,0,4.8,2.1,4.8,5.1C157.5,424,155.5,426.2,152.7,426.2z"/>
	<path class="st0" d="M183.8,414.7c0,0.7,0,1,0.1,1.4h-0.1c-0.8-1.6-2.8-2.8-5.3-2.8c-4.2,0-7.2,3.2-7.2,7.6c0,4.4,3.1,7.5,7.3,7.5
		c2.5,0,4.4-1.2,5-2.6h0.1c-0.1,0.4-0.1,0.7-0.1,1.5v5.1h-7.9v2.7h11v-21.2h-2.8V414.7z M179.1,425.7c-2.7,0-4.7-2-4.7-4.8
		c0-2.8,2-4.8,4.7-4.8c2.7,0,4.7,2,4.7,4.8C183.8,423.7,181.8,425.7,179.1,425.7z"/>
	<polygon class="st0" points="191.2,428.5 194.2,428.5 194.2,416.5 198,416.5 198,413.8 191.2,413.8 	"/>
	<path class="st0" d="M212.3,414.6c0,0.8,0,1.1,0.1,1.5h-0.1c-0.7-1.5-2.6-2.7-5.2-2.7c-4.4,0-7.5,3.3-7.5,7.8c0,4.5,3,7.8,7.4,7.8
		c2.6,0,4.6-1.3,5.3-3h0.1c0,0.4-0.1,0.8-0.1,1.5v1.1h2.8v-14.7h-2.8V414.6z M207.4,426.2c-2.7,0-4.8-2.1-4.8-5.1c0-3,2-5.1,4.8-5.1
		c2.8,0,4.8,2.1,4.8,5.1C212.2,424,210.2,426.2,207.4,426.2z"/>
	<path class="st0" d="M225.6,413.4c-3.6,0-6.1,2.3-6.1,5.7v9.4h3.1v-9.3c0-1.8,1.3-3.1,3.1-3.1c1.8,0,3,1.3,3,3.1v9.3h3.1v-9.3
		C231.7,415.7,229.2,413.4,225.6,413.4z"/>
	<path class="st0" d="M247.6,414.3c0,0.8,0,1.1,0.1,1.5h-0.1c-0.8-1.5-2.9-2.4-5.1-2.4c-4.4,0-7.5,3.2-7.5,7.8c0,4.6,3,7.8,7.3,7.8
		c2.4,0,4.4-1,5.4-2.9h0.1c0,0.4-0.1,0.8-0.1,1.5v0.9h2.8v-21.3h-3V414.3z M242.9,426.2c-2.7,0-4.8-2.1-4.8-5.1c0-3,2-5.1,4.8-5.1
		c2.8,0,4.8,2.1,4.8,5.1C247.7,424,245.7,426.2,242.9,426.2z"/>
	<path class="st0" d="M261.9,413.4c-4.5,0-7.8,3.3-7.8,7.8c0,4.5,3.3,7.8,7.8,7.8c2.5,0,4.6-1,6-2.9l-1.8-1.8c-1.1,1.3-2.4,2-4.2,2
		c-2.5,0-4.2-1.5-4.6-3.9H269c0.1-0.3,0.1-0.8,0.1-1.1C269.1,416.7,266.2,413.4,261.9,413.4z M257.3,420c0.4-2.4,2.1-4,4.5-4
		c2.4,0,4,1.7,4.2,4H257.3z"/>
	<path class="st0" d="M286.5,413.4c-4.5,0-7.8,3.3-7.8,7.8c0,4.5,3.3,7.8,7.8,7.8c2.5,0,4.6-1,6-2.9l-1.8-1.8c-1.1,1.3-2.4,2-4.2,2
		c-2.5,0-4.2-1.5-4.6-3.9h11.7c0.1-0.3,0.1-0.8,0.1-1.1C293.7,416.7,290.8,413.4,286.5,413.4z M282,420c0.4-2.4,2.1-4,4.5-4
		c2.4,0,4,1.7,4.2,4H282z"/>
	<polygon class="st0" points="287.1,411.3 290.8,406.5 287.3,406.5 284.2,411.3 	"/>
	<path class="st0" d="M303.9,426.2c-2.8,0-4.7-2.1-4.7-5.1c0-3,2-5.1,4.7-5.1c1.9,0,3.2,0.9,4.1,2.1l1.9-1.9c-1.4-1.9-3.4-3-5.9-3
		c-4.5,0-7.9,3.3-7.9,7.8c0,4.5,3.3,7.8,7.9,7.8c2.7,0,4.8-1.3,6-3.2l-1.8-1.8C307.2,425.2,305.8,426.2,303.9,426.2z"/>
	<path class="st0" d="M319.5,413.4c-4.5,0-7.8,3.3-7.8,7.8c0,4.5,3.3,7.8,7.8,7.8c4.5,0,7.8-3.3,7.8-7.8
		C327.3,416.7,324,413.4,319.5,413.4z M319.5,426.2c-2.7,0-4.7-2.1-4.7-5.1c0-3,2-5.1,4.7-5.1c2.8,0,4.7,2.1,4.7,5.1
		C324.2,424,322.2,426.2,319.5,426.2z"/>
	<polygon class="st0" points="333.8,407.1 330.7,407.1 330.7,428.5 337.5,428.5 337.5,425.8 333.8,425.8 	"/>
	<path class="st0" d="M346.6,413.4c-4.5,0-7.8,3.3-7.8,7.8c0,4.5,3.3,7.8,7.8,7.8c2.5,0,4.6-1,6-2.9l-1.8-1.8c-1.1,1.3-2.4,2-4.2,2
		c-2.5,0-4.2-1.5-4.6-3.9h11.7c0.1-0.3,0.1-0.8,0.1-1.1C353.9,416.7,350.9,413.4,346.6,413.4z M342.1,420c0.4-2.4,2.1-4,4.5-4
		c2.4,0,4,1.7,4.2,4H342.1z"/>
	<path class="st0" d="M376.1,414.3c0,0.8,0,1.1,0.1,1.5h-0.1c-0.8-1.5-2.9-2.4-5.1-2.4c-4.4,0-7.5,3.2-7.5,7.8c0,4.6,3,7.8,7.3,7.8
		c2.4,0,4.4-1,5.4-2.9h0.1c0,0.4-0.1,0.8-0.1,1.5v0.9h2.8v-21.3h-3V414.3z M371.4,426.2c-2.7,0-4.8-2.1-4.8-5.1c0-3,2-5.1,4.8-5.1
		c2.8,0,4.8,2.1,4.8,5.1C376.2,424,374.2,426.2,371.4,426.2z"/>
	<path class="st0" d="M392.6,423.1c0,1.8-1.3,3.1-3,3.1c-1.7,0-3-1.3-3-3.1v-9.3h-3.1v9.2c0,3.5,2.6,5.9,6.1,5.9
		c3.5,0,6.1-2.4,6.1-5.8v-9.3h-3.1V423.1z"/>
	<path class="st0" d="M413.3,413.4c-3.6,0-6.1,2.3-6.1,5.7v9.4h3.1v-9.3c0-1.8,1.3-3.1,3.1-3.1c1.8,0,3,1.3,3,3.1v9.3h3.1v-9.3
		C419.4,415.7,416.8,413.4,413.3,413.4z"/>
	<path class="st0" d="M432.6,423.1c0,1.8-1.3,3.1-3,3.1c-1.7,0-3-1.3-3-3.1v-9.3h-3.1v9.2c0,3.5,2.6,5.9,6.1,5.9
		c3.5,0,6.1-2.4,6.1-5.8v-9.3h-3.1V423.1z"/>
	<polygon class="st0" points="440,428.5 443.1,428.5 443.1,416.5 448.8,416.5 448.8,428.5 451.8,428.5 451.8,416.5 457.5,416.5 
		457.5,428.5 460.6,428.5 460.6,413.8 440,413.8 	"/>
	<polygon class="st0" points="469.5,411.3 472.4,411.3 476.1,406.5 472.6,406.5 	"/>
	<path class="st0" d="M471.8,413.4c-4.5,0-7.8,3.3-7.8,7.8c0,4.5,3.3,7.8,7.8,7.8c2.5,0,4.6-1,6-2.9l-1.8-1.8c-1.1,1.3-2.4,2-4.2,2
		c-2.5,0-4.2-1.5-4.6-3.9H479c0.1-0.3,0.1-0.8,0.1-1.1C479,416.7,476.1,413.4,471.8,413.4z M467.3,420c0.4-2.4,2.1-4,4.5-4
		c2.4,0,4,1.7,4.2,4H467.3z"/>
	<polygon class="st0" points="482.4,428.5 485.4,428.5 485.4,416.5 489.2,416.5 489.2,413.8 482.4,413.8 	"/>
	<rect x="492.1" y="413.8" class="st0" width="3.1" height="14.7"/>
	<path class="st0" d="M493.6,407.7c-1.1,0-1.9,0.8-1.9,1.8c0,1.1,0.8,1.8,1.9,1.8c1,0,1.9-0.8,1.9-1.8
		C495.5,408.5,494.6,407.7,493.6,407.7z"/>
	<path class="st0" d="M511.4,414.7c0,0.7,0,1,0.1,1.4h-0.1c-1-1.8-2.9-2.8-5.4-2.8c-4.2,0-7.3,3.2-7.3,7.8c0,4.6,3.1,7.8,7.4,7.8
		c2.4,0,4.3-1.1,5.1-2.7h0.1c-0.1,0.5-0.1,0.8-0.1,1.4v7.4h3.1v-21.2h-2.8V414.7z M506.5,426.2c-2.8,0-4.8-2.1-4.8-5.1
		c0-3,2-5.1,4.8-5.1c2.8,0,4.8,2.1,4.8,5.1C511.3,424.1,509.3,426.2,506.5,426.2z"/>
	<path class="st0" d="M527.6,423.1c0,1.8-1.3,3.1-3,3.1c-1.7,0-3-1.3-3-3.1v-9.3h-3.1v9.2c0,3.5,2.6,5.9,6.1,5.9
		c3.5,0,6.1-2.4,6.1-5.8v-9.3h-3.1V423.1z"/>
	<path class="st0" d="M541.7,413.4c-4.5,0-7.8,3.3-7.8,7.8c0,4.5,3.3,7.8,7.8,7.8c2.5,0,4.6-1,6-2.9l-1.8-1.8c-1.1,1.3-2.4,2-4.2,2
		c-2.5,0-4.2-1.5-4.6-3.9h11.7c0.1-0.3,0.1-0.8,0.1-1.1C549,416.7,546,413.4,541.7,413.4z M537.2,420c0.4-2.4,2.1-4,4.5-4
		c2.4,0,4,1.7,4.2,4H537.2z"/>
	<path class="st0" d="M568,413.4c-2.5,0-4.5,1.2-5.4,2.7h-0.1c0-0.4,0.1-0.8,0.1-1.4v-0.9h-2.8V435h3.1v-7.1c0-0.8,0-1.1-0.1-1.4
		h0.1c0.7,1.5,2.8,2.5,5.1,2.5c4.3,0,7.5-3.2,7.5-7.8C575.3,416.6,572.2,413.4,568,413.4z M567.4,426.2c-2.8,0-4.8-2.1-4.8-5.1
		c0-3,2-5.1,4.8-5.1c2.7,0,4.8,2.1,4.8,5.1C572.2,424.1,570.1,426.2,567.4,426.2z"/>
	<path class="st0" d="M585.5,413.4c-4.5,0-7.8,3.3-7.8,7.8c0,4.5,3.3,7.8,7.8,7.8c4.5,0,7.8-3.3,7.8-7.8
		C593.3,416.7,590,413.4,585.5,413.4z M585.5,426.2c-2.7,0-4.7-2.1-4.7-5.1c0-3,2-5.1,4.7-5.1c2.8,0,4.7,2.1,4.7,5.1
		C590.2,424,588.3,426.2,585.5,426.2z"/>
	<path class="st0" d="M605.7,423.1c0,1.8-1.3,3.1-3,3.1c-1.7,0-3-1.3-3-3.1v-9.3h-3.1v9.2c0,3.5,2.6,5.9,6.1,5.9
		c3.5,0,6.1-2.4,6.1-5.8v-9.3h-3.1V423.1z"/>
	<polygon class="st0" points="613,428.5 616.1,428.5 616.1,416.5 619.8,416.5 619.8,413.8 613,413.8 	"/>
	<polygon class="st0" points="633.1,410 630.1,410 630.1,413.8 628.5,413.8 628.5,416.5 630.1,416.5 630.1,428.5 636.7,428.5 
		636.7,425.8 633.1,425.8 633.1,416.5 637.1,416.5 637.1,413.8 633.1,413.8 	"/>
	<path class="st0" d="M646.7,413.4c-4.5,0-7.8,3.3-7.8,7.8c0,4.5,3.3,7.8,7.8,7.8c4.5,0,7.8-3.3,7.8-7.8
		C654.5,416.7,651.2,413.4,646.7,413.4z M646.7,426.2c-2.7,0-4.7-2.1-4.7-5.1c0-3,2-5.1,4.7-5.1c2.8,0,4.7,2.1,4.7,5.1
		C651.4,424,649.4,426.2,646.7,426.2z"/>
	<path class="st0" d="M666.8,423.1c0,1.8-1.3,3.1-3,3.1c-1.7,0-3-1.3-3-3.1v-9.3h-3.1v9.2c0,3.5,2.6,5.9,6.1,5.9
		c3.5,0,6.1-2.4,6.1-5.8v-9.3h-3.1V423.1z"/>
	<path class="st0" d="M678.3,415.9c1.4,0,2.4,0.9,2.8,2l2.2-1.3c-0.8-1.8-2.4-3.3-5.1-3.3s-4.8,1.9-4.8,4.2c0,2.4,1.4,3.4,3.2,4.3
		l1.7,0.8c1.4,0.6,1.9,1.2,1.9,2c0,1.2-0.9,1.8-2.1,1.8c-1.7,0-2.8-1.3-3-2.5l-2.4,1.3c0.5,2,2.2,3.8,5.3,3.8c3.2,0,5.2-1.8,5.2-4.4
		c0-2.2-1.4-3.4-3.2-4.2l-1.9-0.9c-1.4-0.6-1.9-1.1-1.9-2C676.4,416.5,677.2,415.9,678.3,415.9z"/>
</g>
</svg>
